<mxfile host="app.diagrams.net" modified="2024-04-14T13:40:39.960Z" agent="Mozilla/5.0 (Windows NT 10.0; Win64; x64) AppleWebKit/537.36 (KHTML, like Gecko) Chrome/123.0.0.0 Safari/537.36" version="24.1.0" etag="ENSuutodfLIJ678qUVMu" type="github">
  <diagram name="Trang-1" id="XWvtjedEyD84CJqjBBa8">
    <mxGraphModel>
      <root>
        <mxCell id="0" />
        <mxCell id="1" parent="0" />
      </root>
    </mxGraphModel>
  </diagram>
</mxfile>
